HIERARCHY
ROOT root
{
	OFFSET	0	13.1	24.9
	CHANNELS 6  Xposition Yposition Zposition Xrotation Yrotation Zrotation
	JOINT spine_1
	{
		OFFSET	0	9.99999	0
		CHANNELS 3  Xrotation Yrotation Zrotation
		JOINT spine_2
		{
			OFFSET	0	112	-10
			CHANNELS 3  Xrotation Yrotation Zrotation
			JOINT spine_3
			{
				OFFSET	0	206.5	19.3
				CHANNELS 3  Xrotation Yrotation Zrotation
				JOINT spine_4
				{
					OFFSET	0	110.4	14.6
					CHANNELS 3  Xrotation Yrotation Zrotation
					JOINT neck_1
					{
						OFFSET	0	71.8	-50.3
						CHANNELS 3  Xrotation Yrotation Zrotation
						JOINT neck_2
						{
							OFFSET	0	86.2	-25.8
							CHANNELS 3  Xrotation Yrotation Zrotation
							JOINT head_ee
							{
								OFFSET	0	179.8	-8.7
								CHANNELS 3  Xrotation Yrotation Zrotation
								End Site
								{
									OFFSET	1	0	0
								}
							}
						}
					}
					JOINT left_clavicle
					{
						OFFSET	-43.2	22.4	-70.8
						CHANNELS 3  Xrotation Yrotation Zrotation
						JOINT left_shoulder
						{
							OFFSET	-93.9	-5.79999	48.7
							CHANNELS 3  Xrotation Yrotation Zrotation
							JOINT left_elbow
							{
								OFFSET	-291.4	-30.8	15.2
								CHANNELS 3  Xrotation Yrotation Zrotation
								JOINT left_lowarm_twist
								{
									OFFSET	-110.7	-3.89999	13.6
									CHANNELS 3  Xrotation Yrotation Zrotation
									JOINT left_hand
									{
										OFFSET	-110.7	-3.89999	13.6
										CHANNELS 3  Xrotation Yrotation Zrotation
										JOINT left_ee
										{
											OFFSET	-80.8	-5.10001	12.1
											CHANNELS 3  Xrotation Yrotation Zrotation
											End Site
											{
												OFFSET	1	0	0
											}
										}
									}
								}
							}
						}
					}
					JOINT right_clavicle
					{
						OFFSET	43.2	22.4	-70.8
						CHANNELS 3  Xrotation Yrotation Zrotation
						JOINT right_shoulder
						{
							OFFSET	93.9	-5.79999	48.7
							CHANNELS 3  Xrotation Yrotation Zrotation
							JOINT right_elbow
							{
								OFFSET	291.4	-30.8	15.2
								CHANNELS 3  Xrotation Yrotation Zrotation
								JOINT right_lowarm_twist
								{
									OFFSET	110.7	-3.89999	13.6
									CHANNELS 3  Xrotation Yrotation Zrotation
									JOINT right_hand
									{
										OFFSET	110.7	-3.89999	13.6
										CHANNELS 3  Xrotation Yrotation Zrotation
										JOINT right_ee
										{
											OFFSET	80.8	-5.10001	12.1
											CHANNELS 3  Xrotation Yrotation Zrotation
											End Site
											{
												OFFSET	1	0	0
											}
										}
									}
								}
							}
						}
					}
				}
			}
		}
	}
	JOINT left_hip
	{
		OFFSET	-82.8	-127.5	0.300001
		CHANNELS 3  Xrotation Yrotation Zrotation
		JOINT left_knee
		{
			OFFSET	-28.2	-396.7	2.2
			CHANNELS 3  Xrotation Yrotation Zrotation
			JOINT left_ankle
			{
				OFFSET	-11.7	-411.3	35.4
				CHANNELS 3  Xrotation Yrotation Zrotation
				JOINT left_toes
				{
					OFFSET	0	-60	-88.6
					CHANNELS 3  Xrotation Yrotation Zrotation
					JOINT left_foot_ee
					{
						OFFSET	-22.5	-16.5	-42.2
						CHANNELS 3  Xrotation Yrotation Zrotation
						End Site
						{
							OFFSET	1	0	0
						}
					}
				}
			}
		}
	}
	JOINT right_hip
	{
		OFFSET	82.8	-127.5	0.300001
		CHANNELS 3  Xrotation Yrotation Zrotation
		JOINT right_knee
		{
			OFFSET	28.2	-396.7	2.2
			CHANNELS 3  Xrotation Yrotation Zrotation
			JOINT right_ankle
			{
				OFFSET	11.7	-411.3	35.4
				CHANNELS 3  Xrotation Yrotation Zrotation
				JOINT right_toes
				{
					OFFSET	0	-60	-88.6
					CHANNELS 3  Xrotation Yrotation Zrotation
					JOINT right_foot_ee
					{
						OFFSET	22.5	-16.5	-42.2
						CHANNELS 3  Xrotation Yrotation Zrotation
						End Site
						{
							OFFSET	1	0	0
						}
					}
				}
			}
		}
	}
}
MOTION
Frames: 12
Frame Time: 0.02
3018.91 695.696 -665.752 162.283 -65.6087 169.132 -3.09098 -0.530247 -3.04844 -3.08588 -0.335287 -3.07596 -3.06072 0.482869 -3.05629 -3.07375 -0.00563532 -3.09416 -19.7714 12.7156 5.18979 -20.3899 21.8698 10.2327 -0.0 0.0 -0.0 8.83652 21.8238 15.353 1.40725 -19.7723 58.946 6.45207 -72.5923 4.74116 -60.2117 -5.3091 5.10772 -3.91929 2.05804 -26.0823 -0.0 0.0 -0.0 2.80163 9.05427 -4.69803 -23.5212 20.9403 -64.4926 0.578321 15.9863 -0.0812079 -17.0183 0.899867 -1.9733 0.952937 -26.4571 -15.9058 0.0 0.0 0.0 -17.1179 23.7074 -2.58843 -17.6801 0.316039 2.68402 40.2215 -0.501299 -4.89878 -21.7942 0.0 0.0 -0.0 0.0 -0.0 27.653 30.8339 -13.8363 -5.97727 -0.199547 -0.895216 -16.0261 -6.09266 -2.40673 21.1092 -0.0 -0.0 0.0 0.0 0.0 
3031.85 696.224 -661.097 162.846 -65.7939 169.582 -3.08055 -0.522336 -2.97591 -3.07568 -0.332 -3.00309 -3.05146 0.466431 -2.98518 -3.06389 -0.0106517 -3.02135 -19.195 12.7828 4.62311 -19.8221 22.228 9.61871 -0.0 0.0 -0.0 8.67872 19.2776 15.4525 -0.074271 -18.7824 58.7532 6.64136 -73.0576 4.92201 -61.5743 -5.47916 5.14749 -3.82112 0.0681845 -26.4423 -0.0 0.0 -0.0 3.06264 9.17815 -5.22605 -22.8259 21.7268 -64.7246 0.55534 15.3817 -0.0749952 -16.7461 0.880948 -1.94404 1.23421 -27.7627 -17.9159 0.0 0.0 0.0 -17.6947 26.4348 -2.61369 -16.9756 0.319384 2.57598 39.1508 -0.0345614 -4.80243 -20.7513 0.0 0.0 -0.0 0.0 -0.0 28.1508 30.826 -14.1157 -7.50353 -0.235437 -1.12668 -16.0911 -4.83473 -2.41964 23.3028 -0.0 -0.0 0.0 0.0 0.0 
3047.07 698.322 -654.336 162.261 -65.4963 168.711 -3.07751 -0.250982 -2.92231 -3.07276 -0.0646013 -2.93235 -3.06358 0.706857 -2.84668 -3.0748 0.248608 -2.92251 -19.4 12.5639 4.78737 -20.0018 21.7427 9.71464 -0.0 0.0 -0.0 8.18955 18.2685 14.789 -1.77829 -18.7988 58.7149 6.67237 -73.1316 4.95168 -61.9189 -5.52232 5.1569 -3.76415 -0.839156 -26.5026 -0.0 0.0 -0.0 3.28786 9.58678 -5.65863 -21.9159 21.9078 -65.0564 0.537201 14.902 -0.070257 -15.7313 0.811644 -1.83415 1.48745 -28.6436 -19.6208 0.0 0.0 0.0 -18.7767 27.7186 -2.65758 -18.5335 0.310208 2.81482 39.7162 0.431197 -4.84844 -20.0335 0.0 0.0 -0.0 0.0 -0.0 27.9911 30.4095 -14.6406 -9.30995 -0.269928 -1.40172 -16.9546 -5.08218 -2.55025 23.884 -0.0 -0.0 0.0 0.0 0.0 
3060.84 702.829 -646.228 161.972 -65.7203 168.164 -3.09692 -0.257603 -2.85084 -3.0924 -0.0757504 -2.86144 -3.08297 0.678401 -2.78096 -3.09369 0.230875 -2.85312 -19.6155 12.9161 5.79189 -20.2078 21.9337 10.8332 -0.0 0.0 -0.0 8.04181 17.7188 14.6085 -2.78596 -17.2999 59.2311 6.49562 -72.7015 4.78272 -62.5085 -5.59627 5.1724 -3.39295 -1.48632 -24.0839 -0.0 0.0 -0.0 3.83606 9.37659 -6.80922 -21.5245 22.2578 -64.7222 0.49991 13.9091 -0.0609793 -15.3234 0.78434 -1.78964 1.68019 -29.3988 -20.9285 0.0 0.0 0.0 -18.5813 29.8488 -3.1774 -17.9667 0.314298 2.72796 33.8156 0.275396 -4.3012 -20.9143 0.0 0.0 -0.0 0.0 -0.0 27.4754 30.4697 -14.73 -11.4269 -0.299288 -1.72521 -15.11 -4.67963 -2.27082 25.8693 -0.0 -0.0 0.0 0.0 0.0 
3072.37 703.902 -640.016 161.005 -66.6663 167.107 -3.15241 -0.34388 -2.6037 -3.14866 -0.177561 -2.62029 -3.13551 0.519014 -2.57453 -3.14474 0.106047 -2.62415 -20.9857 13.1202 6.53381 -21.6433 22.1261 11.9209 -0.0 0.0 -0.0 7.82155 16.333 14.381 -3.4784 -17.9888 58.4445 5.63698 -70.2679 3.96834 -63.9929 -5.78309 5.20803 -3.57596 -2.35845 -25.89 -0.0 0.0 -0.0 3.93751 9.56621 -7.00567 -21.2241 23.4271 -65.7805 0.491747 13.6906 -0.0590322 -14.5471 0.733262 -1.70442 1.74249 -29.3598 -21.2826 0.0 0.0 0.0 -18.4278 30.8821 -4.01382 -17.024 0.319197 2.5834 33.4685 0.0470047 -4.26833 -19.2421 0.0 0.0 -0.0 0.0 -0.0 28.442 30.1733 -15.2496 -16.0867 -0.321709 -2.43962 -13.6405 -5.70329 -2.04499 25.9229 -0.0 -0.0 0.0 0.0 0.0 
3084.84 708.623 -630.338 161.358 -67.0174 167.17 -2.98022 -0.466115 -2.53692 -2.97669 -0.303794 -2.56142 -2.9582 0.373692 -2.55216 -2.96728 -0.0339247 -2.57913 -20.9055 13.2281 5.86296 -21.6256 22.6499 11.3519 -0.0 0.0 -0.0 7.83912 17.3845 14.3128 -3.86764 -15.9279 59.5711 5.09728 -68.3695 3.46336 -65.4663 -5.96933 5.23858 -3.02212 -1.56854 -21.4248 -0.0 0.0 -0.0 4.85342 8.67402 -8.96208 -21.4538 24.2918 -64.4701 0.475307 13.2494 -0.0552028 -13.3718 0.658142 -1.5741 1.79488 -29.3702 -21.5917 0.0 0.0 0.0 -18.5168 31.692 -4.47013 -17.301 0.318005 2.62588 28.9649 0.591203 -3.79477 -19.771 0.0 0.0 -0.0 0.0 -0.0 28.4029 30.0033 -15.483 -18.0317 -0.313873 -2.73792 -10.4695 -4.76114 -1.56549 26.7106 -0.0 -0.0 0.0 0.0 0.0 
3093.14 715.128 -624.871 161.912 -67.4744 167.142 -2.88216 -0.406629 -2.38363 -2.87903 -0.254173 -2.40466 -2.86418 0.376871 -2.38852 -2.87214 -0.00496573 -2.41804 -24.0341 13.09 8.18328 -24.7622 21.6961 14.1353 -0.0 0.0 -0.0 7.65762 17.1737 14.0374 -5.38222 -16.8082 59.1926 4.63481 -66.4422 3.03632 -66.1963 -6.06186 5.25193 -3.06784 -2.71367 -22.3245 -0.0 0.0 -0.0 5.20674 10.1842 -9.60741 -20.4227 24.6385 -65.2879 0.464907 12.9694 -0.0528439 -13.3113 0.654347 -1.56735 1.82049 -29.553 -21.7835 0.0 0.0 0.0 -17.997 32.0487 -4.4801 -16.7047 0.320317 2.53443 26.4925 -0.349442 -3.52683 -18.9759 0.0 0.0 -0.0 0.0 -0.0 28.3291 29.9151 -15.3091 -19.6699 -0.299421 -2.98885 -8.74049 -5.10546 -1.30328 27.7321 -0.0 -0.0 0.0 0.0 0.0 
3098.15 715.976 -619.209 164.127 -66.4926 169.378 -2.77657 -0.174757 -2.48147 -2.77314 -0.0165501 -2.48756 -2.76853 0.624053 -2.40812 -2.77655 0.236028 -2.4764 -21.1561 14.2871 8.03496 -21.8777 23.6798 13.8832 -0.0 0.0 -0.0 7.76699 17.3437 14.1995 -5.79254 -16.2157 59.4677 4.20152 -64.3178 2.64235 -67.7731 -6.2622 5.27672 -2.45917 -3.94189 -18.5446 -0.0 0.0 -0.0 5.91733 10.1862 -11.0966 -20.9338 26.2474 -63.7675 0.456909 12.7536 -0.0510636 -13.5677 0.670479 -1.59593 1.64721 -29.4691 -20.7534 0.0 0.0 0.0 -13.4864 32.3698 -7.31206 -21.685 0.271811 3.2968 21.0061 1.74504 -2.86678 -18.9753 0.0 0.0 -0.0 0.0 -0.0 27.6476 29.8097 -15.2651 -18.2361 -0.312461 -2.76924 -8.16583 -1.82095 -1.22289 26.6887 -0.0 -0.0 0.0 0.0 0.0 
3111.32 718.841 -617.383 163.233 -67.7316 168.29 -2.84079 -0.312449 -2.512 -2.83729 -0.152023 -2.52677 -2.82623 0.505622 -2.48036 -2.8348 0.107681 -2.52905 -20.3944 15.0466 6.77957 -21.2883 25.6495 12.9366 -0.0 0.0 -0.0 7.862 18.7487 14.2155 -6.63623 -15.7883 60.2911 4.086 -63.6896 2.53851 -67.5103 -6.22877 5.27297 -1.74724 -2.1296 -12.7301 -0.0 0.0 -0.0 6.3481 10.0056 -12.0115 -21.2997 27.087 -61.7939 0.437126 12.2184 -0.0467864 -12.375 0.596543 -1.4624 1.6619 -28.2878 -20.5522 0.0 0.0 0.0 -13.1806 33.2483 -7.90486 -23.3225 0.24141 3.54623 19.1158 1.21214 -2.63481 -18.4525 0.0 0.0 -0.0 0.0 -0.0 27.2829 28.7938 -14.8684 -19.6886 -0.299214 -2.99172 -12.1244 -5.42 -1.8153 26.8238 -0.0 -0.0 0.0 0.0 0.0 
3121.67 724.604 -610.594 163.807 -68.3016 168.596 -2.86566 -0.199114 -2.4749 -2.86226 -0.0412761 -2.48254 -2.85647 0.602546 -2.40871 -2.8645 0.214696 -2.47359 -18.9842 15.6006 6.67768 -19.8421 26.5766 12.7141 -0.0 0.0 -0.0 7.73452 19.2916 13.9595 -8.48547 -15.2631 60.6489 3.89074 -62.5603 2.36434 -67.7339 -6.25722 5.27617 -1.4728 -1.55931 -10.5908 -0.0 0.0 -0.0 6.67694 10.1627 -12.6976 -20.2569 27.2002 -60.5011 0.534499 14.8304 -0.0695639 -12.2978 0.591858 -1.45371 1.53757 -27.8563 -19.7122 0.0 0.0 0.0 -11.5535 33.3813 -9.17724 -24.3191 0.219421 3.69758 13.7715 2.82181 -1.93738 -17.8801 0.0 0.0 -0.0 0.0 -0.0 26.6005 28.8392 -15.0984 -19.9314 -0.29645 -3.02886 -10.7219 -6.66162 -1.60098 26.7021 -0.0 -0.0 0.0 0.0 0.0 
3133.25 726.491 -605.769 160.857 -68.4962 166.259 -3.09034 -0.255535 -2.50779 -3.08685 -0.0954913 -2.51896 -3.07822 0.569079 -2.45573 -3.08659 0.174229 -2.51474 -17.1035 15.8593 5.79132 -17.8854 27.2765 11.5004 -0.0 0.0 -0.0 8.01591 20.4898 14.2686 -9.36534 -15.0169 61.0076 3.71365 -61.4559 2.20796 -67.7367 -6.25758 5.27621 -1.3031 -0.526 -8.97229 -0.0 0.0 -0.0 6.90058 9.33127 -13.2044 -21.0559 27.6501 -58.5915 0.647413 17.7816 -0.101277 -11.8835 0.566891 -1.40694 1.65894 -25.3261 -19.7728 0.0 0.0 0.0 -7.82314 32.2472 -14.5583 -32.2605 -0.0491322 4.88579 9.19933 -1.1031 -1.32765 -19.0337 0.0 0.0 -0.0 0.0 -0.0 23.0314 29.0016 -14.9888 -17.3611 -0.317718 -2.6351 -8.05394 -6.28794 -1.19837 25.578 -0.0 -0.0 0.0 0.0 0.0 
3143.26 727.093 -600.55 160.098 -67.6742 165.902 -3.27973 -0.115508 -2.56622 -3.27607 0.0479663 -2.56837 -3.27379 0.729034 -2.46326 -3.28211 0.330991 -2.54742 -15.8026 16.4369 5.41879 -16.5541 28.4037 11.0326 -0.0 0.0 -0.0 7.82369 20.5004 13.9717 -10.1671 -14.9407 61.6268 3.52156 -60.1621 2.04025 -67.5404 -6.2326 5.27341 -0.864609 0.297494 -5.65284 -0.0 0.0 -0.0 7.39498 10.6081 -14.2013 -21.8309 29.3582 -57.5588 0.637338 17.522 -0.0982217 -12.2171 0.586967 -1.44462 1.54604 -24.6908 -18.9157 0.0 0.0 0.0 -4.88585 31.1152 -17.2831 -37.5848 -0.320308 5.65719 3.50288 1.8888 -0.511191 -19.4696 0.0 0.0 -0.0 0.0 -0.0 21.7843 28.5798 -15.7544 -16.9885 -0.319335 -2.57796 -7.79135 -6.04413 -1.15904 26.3746 -0.0 -0.0 0.0 0.0 0.0 
